PathFileType	4	(X/Y/Z)	C:\Users\Biomechanik\SynologyDrive\AlexP\Athlete_03\Athlete_3_25_03_31\Squat_35kg_02\marker_experimental.trc
DataRate	CameraRate	NumFrames	NumMarkers	Units	OrigDataRate	OrigDataStartFrame	OrigNumFrames
200.000000	200.000000	4	55	mm	200.000000	397	530
Frame#	Time	BL			BR			GLAB			RFHD			LFHD			C7			T6			SPINMOL			SPINM2			SPINM3			T12			BELTOL			BELT2			BELT3			SACROL			SACR2			SACR3			LTHOL			LTH2			LTH3			LSHAOL			LSHA2			LSHA3			LHEE			LTOE			LM5			RTHOL			RTH2			RTH3			RSHAOL			RSHA2			RSHA3			RHEE			RTOE			RM5			STRN			XIPH			LACR			LUAOL			LUA2			LUA3			LLAOL			LLA2			LLA3			LWRR			LWRU			RACR			RUAOL			RUA2			RUA3			RLAOL			RLA2			RLA3			RWRR			RWRU			
		X1	Y1	Z1	X2	Y2	Z2	X3	Y3	Z3	X4	Y4	Z4	X5	Y5	Z5	X6	Y6	Z6	X7	Y7	Z7	X8	Y8	Z8	X9	Y9	Z9	X10	Y10	Z10	X11	Y11	Z11	X12	Y12	Z12	X13	Y13	Z13	X14	Y14	Z14	X15	Y15	Z15	X16	Y16	Z16	X17	Y17	Z17	X18	Y18	Z18	X19	Y19	Z19	X20	Y20	Z20	X21	Y21	Z21	X22	Y22	Z22	X23	Y23	Z23	X24	Y24	Z24	X25	Y25	Z25	X26	Y26	Z26	X27	Y27	Z27	X28	Y28	Z28	X29	Y29	Z29	X30	Y30	Z30	X31	Y31	Z31	X32	Y32	Z32	X33	Y33	Z33	X34	Y34	Z34	X35	Y35	Z35	X36	Y36	Z36	X37	Y37	Z37	X38	Y38	Z38	X39	Y39	Z39	X40	Y40	Z40	X41	Y41	Z41	X42	Y42	Z42	X43	Y43	Z43	X44	Y44	Z44	X45	Y45	Z45	X46	Y46	Z46	X47	Y47	Z47	X48	Y48	Z48	X49	Y49	Z49	X50	Y50	Z50	X51	Y51	Z51	X52	Y52	Z52	X53	Y53	Z53	X54	Y54	Z54	X55	Y55	Z55	

398	1.985	213.8175506591797	1222.092651367188	-2207.069091796875	179.5590057373047	1239.877563476562	-186.6688232421874	467.4897155761719	1428.925659179688	-1164.100830078125	414.3137817382812	1450.7451171875	-1101.833618164062	423.3108520507812	1449.198364257812	-1237.111694335938	240.1163940429688	1295.306518554688	-1174.561157226562	132.0208587646484	1163.784912109375	-1185.4736328125	115.5462417602539	1140.260375976562	-1203.615234375	104.9103469848633	1132.99609375	-1155.048950195312	86.34438323974609	1081.87353515625	-1192.583862304688	65.59803771972656	1030.411254882812	-1194.4072265625	30.3336181640625	1018.247985839844	-1211.388427734375	26.91304969787598	1014.8251953125	-1161.044189453125	-6.873384952545166	966.9990844726564	-1192.172729492188	-58.41349792480469	875.5050048828126	-1221.682495117188	-58.58623886108398	874.7481079101564	-1170.083862304688	-76.78928375244141	816.6265258789064	-1196.731689453125	81.73027801513672	614.7434082031251	-1455.563842773438	79.13017272949219	535.9530639648439	-1450.006713867188	113.8764114379883	564.9998779296876	-1472.150024414062	151.2238922119141	328.0644836425782	-1565.255004882812	100.2467956542969	269.1045532226564	-1547.869750976562	147.8875122070312	266.0648498535157	-1564.803100585938	75.22405242919922	69.02858734130868	-1490.7548828125	282.6445922851562	51.66465377807626	-1548.136962890625	215.3701171875	23.54326629638682	-1635.200805664062	46.32230377197266	612.2883300781251	-934.396728515625	105.3265914916992	608.6578369140625	-880.5709228515625	85.58959197998047	571.7796020507812	-907.3223876953125	111.2044677734375	344.8175659179688	-819.2994384765625	133.4841918945312	270.4669799804688	-805.5956420898438	93.01278686523438	285.7548522949219	-829.8826904296875	51.81824111938477	64.31269836425787	-911.8970336914062	249.32958984375	48.78297805786138	-832.8278198242188	167.5696868896484	34.16220474243168	-753.7843627929688	369.4422607421875	1149.701049804688	-1176.357543945312	343.8844909667969	1003.349548339844	-1176.3154296875	280.8624877929688	1250.361450195312	-1341.213256835938	163.8721313476562	1148.876831054688	-1435.197998046875	115.5589904785156	1105.700073242188	-1423.92529296875	142.8095245361328	1095.498901367188	-1465.908569335938	116.2958221435547	1028.683227539062	-1536.500366210938	188.5108032226562	1024.515502929688	-1569.748046875	160.445556640625	1065.3154296875	-1558.646850585938	214.3195343017578	1147.806518554688	-1591.710327148438	230.7442169189453	1169.097900390625	-1516.927978515625	282.4432373046875	1248.04638671875	-1016.696655273437	166.2790069580078	1147.452026367188	-937.0617675781249	134.3919067382812	1097.374267578125	-907.6447143554686	116.5284805297852	1108.544799804688	-955.6040649414061	116.4913864135742	1026.258056640625	-821.3765869140624	124.2984771728516	1105.136596679688	-809.2673339843749	155.772705078125	1067.336303710938	-795.5632324218749	193.5938110351562	1150.01318359375	-772.2601928710936	225.1728210449219	1179.734375	-840.2780761718749	
399	1.99	213.3202819824219	1227.447387695313	-2206.9765625	179.02490234375	1245.211791992188	-186.5794067382812	466.9434204101562	1434.5224609375	-1164.064697265625	413.7763977050781	1456.380004882812	-1101.776489257812	422.763427734375	1454.863159179688	-1237.047729492188	239.4610900878906	1300.69287109375	-1174.493774414062	131.7922058105469	1168.500366210938	-1185.4296875	115.4309158325195	1144.833374023438	-1203.557983398438	104.7770614624023	1137.564819335938	-1155.0107421875	86.52816009521484	1086.302612304688	-1192.505981445312	66.04499053955078	1034.701538085938	-1194.342529296875	30.86618232727051	1022.415771484375	-1211.377685546875	27.44270896911621	1018.958740234375	-1161.037841796875	-6.116181373596191	970.9925537109376	-1192.193237304688	-57.21711730957031	879.7041625976564	-1221.671875	-57.41164016723633	878.9190673828126	-1170.07568359375	-75.55165100097656	820.7996826171876	-1196.76171875	81.37679290771484	617.6097412109376	-1454.614013671875	77.81317901611328	538.8770141601564	-1448.6357421875	112.9542083740234	567.3838500976564	-1470.87158203125	149.6370544433594	328.4982299804689	-1563.943603515625	98.97876739501953	269.1866760253907	-1546.840209960938	146.642333984375	266.4776306152345	-1563.780517578125	75.18238067626953	69.02296447753915	-1490.76953125	282.6332092285156	51.6983184814454	-1548.150634765625	215.3702545166016	23.55372619628916	-1635.193115234375	46.05582046508789	615.2479248046876	-935.7391357421875	105.0071182250977	610.61328125	-881.9317016601562	84.87026977539062	574.1409301757812	-908.930908203125	109.6899108886719	345.2908935546876	-820.8966674804688	132.3439178466797	271.1345214843751	-806.792236328125	91.79023742675781	286.0765380859376	-831.17333984375	51.77003860473633	64.30723571777349	-911.904296875	249.3506774902344	48.80741500854497	-832.8591918945312	167.5947723388672	34.20295715332036	-753.8273315429688	369.2442626953125	1155.549438476562	-1176.242309570312	344.3168640136719	1009.113159179688	-1176.165771484375	280.2623291015625	1255.76953125	-1341.126953125	163.4843444824219	1153.974365234375	-1435.07763671875	115.3187866210938	1110.657470703125	-1423.7880859375	142.5814971923828	1100.537109375	-1465.785278320312	116.2104110717773	1033.701904296875	-1536.381469726562	188.3918304443359	1029.722045898438	-1569.677490234375	160.2946472167969	1070.429931640625	-1558.534057617188	213.9337463378906	1153.04638671875	-1591.665649414062	230.3596038818359	1174.359741210938	-1516.869506835938	281.8499145507812	1253.552978515625	-1016.590393066406	165.8988494873047	1152.622802734375	-936.9398803710936	134.2177276611328	1102.403930664062	-907.5610351562499	116.3330230712891	1113.509887695312	-955.5231933593749	116.5216674804688	1031.24951171875	-821.2704467773436	124.0849075317383	1110.149536132812	-809.1559448242186	155.6682281494141	1072.44775390625	-795.4412841796874	193.2277984619141	1155.250366210938	-772.1275024414061	224.7738800048828	1185.011596679688	-840.1394653320311	
400	1.995	212.8210144042969	1232.709228515625	-2206.88916015625	178.4831085205078	1250.458984375	-186.4954071044921	466.3931274414062	1440.030151367188	-1164.027709960938	413.2310485839844	1461.925537109375	-1101.722045898438	422.2187194824219	1460.43359375	-1236.991943359375	238.8022613525391	1305.98974609375	-1174.429931640625	131.5652770996094	1173.123779296875	-1185.388671875	115.319206237793	1149.313720703125	-1203.505615234375	104.6479797363281	1142.040283203125	-1154.977416992188	86.71938323974609	1090.638793945312	-1192.435302734375	66.49996185302734	1038.900512695312	-1194.28564453125	31.40851593017578	1026.494750976562	-1211.3740234375	27.98271942138672	1023.003051757813	-1161.0380859375	-5.353043079376221	974.8983154296876	-1192.228271484375	-56.00726318359375	883.8156738281251	-1221.66748046875	-56.22630310058594	883.0007324218751	-1170.0732421875	-74.29588317871094	824.8833618164064	-1196.799072265625	81.03789520263672	620.4147949218751	-1453.653442382812	76.50859069824219	541.7549438476564	-1447.251342773438	112.0394973754883	569.7152099609376	-1469.574340820312	148.0465850830078	328.918670654297	-1562.604736328125	97.71403503417969	269.2558898925782	-1545.780883789062	145.3966522216797	266.880340576172	-1562.732177734375	75.14205169677734	69.01843261718759	-1490.780395507812	282.6250915527344	51.72821426391611	-1548.160278320312	215.3721771240234	23.56559944152842	-1635.183959960938	45.79959869384766	618.1608886718751	-937.098388671875	104.6934585571289	612.5208129882812	-883.3234252929688	84.15281677246094	576.4608764648438	-910.5615844726562	108.1685180664062	345.7472229003907	-822.5225830078125	131.2001647949219	271.7926635742188	-808.0119018554688	90.56392669677734	286.3826599121094	-832.4871826171875	51.72343444824219	64.30028533935553	-911.915283203125	249.3726501464844	48.82838439941411	-832.8948364257812	167.6214294433594	34.24621200561528	-753.8724365234375	369.0396728515625	1161.310424804688	-1176.13134765625	344.7484436035156	1014.790710449219	-1176.020385742188	279.6610717773438	1261.090454101562	-1341.04541015625	163.09814453125	1158.985107421875	-1434.962158203125	115.0820465087891	1115.5283203125	-1423.6552734375	142.3559265136719	1105.48828125	-1465.667236328125	116.128532409668	1038.631103515625	-1536.26513671875	188.2782592773438	1034.83935546875	-1569.606567382812	160.1374053955078	1075.459106445312	-1558.427368164062	213.5504455566406	1158.197021484375	-1591.622924804688	229.9759063720703	1179.5341796875	-1516.813110351562	281.254638671875	1258.973022460938	-1016.490661621094	165.5177917480469	1157.70654296875	-936.8213500976561	134.0471038818359	1107.343994140625	-907.4830322265624	116.1410293579102	1118.384765625	-955.4476318359374	116.5583267211914	1036.15185546875	-821.1684570312499	123.8727798461914	1115.073852539062	-809.0496826171874	155.5670471191406	1077.471313476562	-795.3234863281249	192.8620300292969	1160.400512695312	-771.9990844726561	224.3715057373047	1190.19873046875	-840.0081787109374	
401	2	212.3203735351562	1237.874389648438	-2206.806640625	177.9341278076172	1255.614990234375	-186.4167175292968	465.8382873535156	1445.4443359375	-1163.989624023438	412.6776428222656	1467.377197265625	-1101.67041015625	421.6760864257812	1465.90380859375	-1236.943725585938	238.1412506103516	1311.193359375	-1174.369384765625	131.3394622802734	1177.65234375	-1185.350219726562	115.2097244262695	1153.698974609375	-1203.458129882812	104.5221633911133	1146.419921875	-1154.948608398438	86.91668701171875	1094.879516601562	-1192.371459960938	66.96105194091797	1043.005249023438	-1194.236206054688	31.95845222473145	1030.481689453125	-1211.37646484375	28.53145408630371	1026.954956054688	-1161.04345703125	-4.585890293121338	978.7131347656251	-1192.27685546875	-54.78446578979492	887.8365478515626	-1221.670776367188	-55.03068542480469	886.9906616210939	-1170.077758789062	-73.02304077148438	828.8746948242189	-1196.844848632812	80.71424102783203	623.1540527343751	-1452.679321289062	75.21875	544.5836791992189	-1445.848388671875	111.1326522827148	571.9908447265626	-1468.255493164062	146.4503631591797	329.3261108398439	-1561.234741210938	96.45273590087891	269.3118591308595	-1544.683715820312	144.1487121582031	267.273162841797	-1561.655029296875	75.10356903076172	69.01486206054696	-1490.786499023438	282.6203308105469	51.75394821167001	-1548.165771484375	215.3758544921875	23.57912635803233	-1635.17333984375	45.55487442016602	621.0258178710939	-938.4723510742188	104.3875503540039	614.3790893554688	-884.7445678710938	83.43892669677734	578.73828125	-912.2125854492188	106.6409149169922	346.1867065429688	-824.1790161132812	130.0519104003906	272.4416198730469	-809.254638671875	89.33454132080078	286.6738891601563	-833.8260498046875	51.67920684814453	64.2909774780274	-911.9305419921875	249.3957061767578	48.84539413452153	-832.935302734375	167.6497039794922	34.29224777221684	-753.9199829101562	368.8277587890625	1166.978637695312	-1176.025268554688	345.1769409179688	1020.376892089844	-1175.880004882812	279.0592956542969	1266.320068359375	-1340.968627929688	162.7139892578125	1163.90625	-1434.851196289062	114.8480072021484	1120.309814453125	-1423.526489257812	142.1322174072266	1110.349731445312	-1465.554565429688	116.0491409301758	1043.46826171875	-1536.1513671875	188.1695709228516	1039.864013671875	-1569.53564453125	159.9743041992188	1080.399780273438	-1558.326293945312	213.1689147949219	1163.255615234375	-1591.5810546875	229.5929870605469	1184.6181640625	-1516.758178710938	280.6580505371094	1264.302001953125	-1016.397399902344	165.136962890625	1162.699340820312	-936.7071533203124	133.8799285888672	1112.19140625	-907.4110717773436	115.9524612426758	1123.166625976562	-955.3776245117186	116.6008377075195	1040.962768554688	-821.0708618164061	123.6626968383789	1119.90673828125	-808.9489746093749	155.4691009521484	1082.404296875	-795.2103881835936	192.4969940185547	1165.460205078125	-771.8756103515624	223.9669494628906	1195.292846679688	-839.8840942382811	
